<?xml version="1.0" encoding="UTF-8" standalone="no"?>
<!-- Created with Inkscape (http://www.inkscape.org/) -->
<svg
   xmlns:dc="http://purl.org/dc/elements/1.1/"
   xmlns:cc="http://web.resource.org/cc/"
   xmlns:rdf="http://www.w3.org/1999/02/22-rdf-syntax-ns#"
   xmlns:svg="http://www.w3.org/2000/svg"
   xmlns="http://www.w3.org/2000/svg"
   xmlns:sodipodi="http://sodipodi.sourceforge.net/DTD/sodipodi-0.dtd"
   xmlns:inkscape="http://www.inkscape.org/namespaces/inkscape"
   width="744.09448819"
   height="1052.3622047"
   id="svg2"
   sodipodi:version="0.32"
   inkscape:version="0.45.1"
   sodipodi:docbase="/Users/krom/Program/3Link"
   sodipodi:docname="tiles.svg"
   inkscape:output_extension="org.inkscape.output.svg.inkscape">
  <defs
     id="defs4" />
  <sodipodi:namedview
     id="base"
     pagecolor="#ffffff"
     bordercolor="#666666"
     borderopacity="1.0"
     gridtolerance="10000"
     guidetolerance="10"
     objecttolerance="10"
     inkscape:pageopacity="0.0"
     inkscape:pageshadow="2"
     inkscape:zoom="0.35"
     inkscape:cx="375"
     inkscape:cy="520"
     inkscape:document-units="px"
     inkscape:current-layer="layer1" />
  <metadata
     id="metadata7">
    <rdf:RDF>
      <cc:Work
         rdf:about="">
        <dc:format>image/svg+xml</dc:format>
        <dc:type
           rdf:resource="http://purl.org/dc/dcmitype/StillImage" />
      </cc:Work>
    </rdf:RDF>
  </metadata>
  <g
     inkscape:label="Layer 1"
     inkscape:groupmode="layer"
     id="layer1">
    <rect
       style="opacity:1;fill:#ff0000"
       id="rect2160"
       width="64"
       height="64"
       x="0"
       y="988.36218"
       ry="20" />
    <rect
       style="opacity:1;fill:#808000"
       id="rect2162"
       width="64"
       height="64"
       x="64"
       y="988.36218"
       ry="20" />
    <rect
       style="opacity:1;fill:#ffff00"
       id="rect2164"
       width="64"
       height="64"
       x="128"
       y="988.36218"
       ry="20" />
    <rect
       style="opacity:1;fill:#008000"
       id="rect2166"
       width="64"
       height="64"
       x="192"
       y="988.36218"
       ry="20" />
    <rect
       style="opacity:1;fill:#008080"
       id="rect2168"
       width="64"
       height="64"
       x="256"
       y="988.36218"
       ry="20" />
    <rect
       style="opacity:1;fill:#ff2a2a"
       id="rect2170"
       width="64"
       height="64"
       x="320"
       y="988.36218"
       ry="20" />
    <rect
       style="opacity:1;fill:#000080"
       id="rect2172"
       width="64"
       height="64"
       x="384"
       y="988.36218"
       ry="20" />
    <rect
       style="opacity:1;fill:#800080"
       id="rect2174"
       width="64"
       height="64"
       x="448"
       y="988.36218"
       ry="20" />
    <path
       style="opacity:1;fill:#808080"
       d="M 18.96875,888.38265 C 8.3721765,888.91627 0,897.64779 0,908.38026 L 0,932.37739 C 0,943.45607 8.92,952.375 20,952.375 L 44,952.375 C 55.08,952.375 64,943.45607 64,932.37739 L 64,908.38026 C 64,897.30159 55.08,888.38265 44,888.38265 L 20,888.38265 C 19.65375,888.38265 19.310575,888.36543 18.96875,888.38265 z M 20.75,890.38241 L 43.25,890.38241 C 53.6375,890.38241 62,898.74391 62,909.13017 L 62,931.62748 C 62,942.01374 53.6375,950.37524 43.25,950.37524 L 20.75,950.37524 C 10.3625,950.37524 2,942.01374 2,931.62748 L 2,909.13017 C 2,898.74391 10.3625,890.38241 20.75,890.38241 z "
       id="rect2176"
       inkscape:export-filename="/Users/krom/Program/3Link/border.png"
       inkscape:export-xdpi="89.954102"
       inkscape:export-ydpi="89.954102" />
  </g>
</svg>
